<svg height="512pt" viewBox="0 -5 512.00124 512" width="512pt" xmlns="http://www.w3.org/2000/svg"><path d="m356.910156 338.457031-188.328125 131.039063c-39.144531 24.335937-89.898437 18.496094-122.492187-14.097656-19.125-19.125-29.042969-44.523438-29.042969-70.175782 0-17.632812 4.6875-35.386718 14.316406-51.296875l81.214844-107.691406-37.824219 129.316406c-3.394531 6.921875-5.296875 14.714844-5.296875 22.949219 0 28.847656 23.382813 52.230469 52.226563 52.230469 11.773437 0 22.632812-3.886719 31.371094-10.46875 0 0 0 .007812.011718 0zm0 0" fill="#f0838f"/><path d="m173.921875 378.496094c0 28.851562-23.386719 52.238281-52.234375 52.238281s-52.234375-23.386719-52.234375-52.238281c0-28.847656 23.386719-52.234375 52.234375-52.234375s52.234375 23.386719 52.234375 52.234375zm0 0" fill="#e5ecec"/><path d="m502.042969 9.96875v149.261719l-345.484375 258.171875c10.691406-9.566406 17.414062-23.464844 17.414062-38.933594 0-28.855469-23.386718-52.238281-52.242187-52.238281-11.761719 0-22.621094 3.898437-31.347657 10.449219l278.167969-326.710938zm0 0" fill="#ffcb7c"/><path d="m448.871094 349.109375-262.730469 120.359375 176.484375-122.804688c4.535156-3.152343 5.652344-9.386718 2.5-13.921874-3.15625-4.535157-9.390625-5.652344-13.925781-2.496094l-188.105469 130.890625c-16.980469 10.484375-37.238281 15-57.066406 12.71875-19.84375-2.285157-38.550782-11.300781-52.707032-25.386719-.066406-.066406-.128906-.128906-.195312-.191406-28.941406-28.980469-34.449219-73.617188-13.460938-108.746094l80.902344-107.277344c3.324219-4.410156 2.445313-10.683594-1.964844-14.007812-4.410156-3.324219-10.679687-2.449219-14.007812 1.960937l-73.265625 97.15625c.140625-.300781.269531-.605469.414063-.902343l90.03125-185.105469c2.417968-4.96875.347656-10.953125-4.621094-13.371094-4.96875-2.410156-10.953125-.347656-13.371094 4.621094l-90.027344 185.105469c-24.726562 50.839843-15.527344 112.058593 22.890625 152.324218.738281.773438 1.484375 1.539063 2.238281 2.292969.03125.03125.0625.058594.089844.085937.015625.019532.03125.035157.046875.050782.058594.058594.121094.113281.179688.171875 24.996093 24.835937 58.144531 38.824219 93.398437 39.398437.65625.011719 1.3125.015625 1.972656.015625 18.640626 0 37.78125-4.261719 55.484376-12.371093l267.148437-122.382813c5.019531-2.300781 7.226563-8.234375 4.925781-13.257813-2.300781-5.023437-8.234375-7.230468-13.257812-4.929687zm0 0"/><path d="m239.035156 162.0625c1.882813 1.605469 4.1875 2.386719 6.480469 2.386719 2.828125 0 5.640625-1.191407 7.621094-3.519531l122.980469-144.441407c3.582031-4.207031 3.078124-10.519531-1.128907-14.101562s-10.519531-3.074219-14.101562 1.132812l-122.984375 144.445313c-3.578125 4.203125-3.074219 10.519531 1.132812 14.097656zm0 0"/><path d="m85.496094 327.875c-.671875.480469-1.359375.945312-1.96875 1.511719-15.296875 11.910156-24.917969 30.78125-24.019532 51.820312 1.359376 31.769531 26.972657 57.703125 58.722657 59.433594 15.007812.816406 28.941406-3.726563 40.085937-11.871094.238282-.148437.476563-.304687.703125-.476562 1.292969-.960938 2.539063-1.984375 3.730469-3.03125l73.929688-55.246094c4.425781-3.304687 5.332031-9.574219 2.023437-14-3.308594-4.421875-9.574219-5.328125-14-2.023437l-41.085937 30.703124c.207031-2.054687.308593-4.128906.308593-6.191406 0-4.542968-.5-8.96875-1.429687-13.234375l128.109375-96.253906c4.414062-3.316406 5.304687-9.589844 1.988281-14.003906-3.320312-4.414063-9.589844-5.308594-14.007812-1.988281l-123.8125 93.027343c-1.53125-2.492187-3.226563-4.871093-5.078126-7.117187-9.273437-11.234375-22.414062-19.019532-36.746093-21.652344-3.984375-.730469-8.027344-1.054688-12.078125-1.003906l110.960937-130.320313c3.578125-4.207031 3.074219-10.519531-1.132812-14.101562s-10.519531-3.074219-14.101563 1.132812l-127.171875 149.367188c-1.46875 1.722656-2.78125 3.570312-3.929687 5.519531zm-6.042969 50.621094c0-21.761719 16.550781-39.730469 37.726563-41.988282 1.496093-.15625 3.003906-.242187 4.503906-.242187 12.375 0 23.519531 5.347656 31.25 13.851563 2.214844 2.433593 4.140625 5.125 5.742187 8.023437l-18.972656 14.257813c-4.417969 3.316406-5.308594 9.585937-1.988281 14.003906 1.964844 2.613281 4.964844 3.996094 8.003906 3.996094 2.089844 0 4.199219-.65625 6-2.007813l12.179688-9.152344c-.140626 8.117188-2.652344 16.15625-7.21875 22.878907-7.601563 11.222656-20.449219 18.613281-34.996094 18.613281-23.285156 0-42.230469-18.945313-42.230469-42.234375zm0 0"/><path d="m496.007812 151.253906-223.007812 166.648438c-4.421875 3.304687-5.332031 9.570312-2.023438 14 1.964844 2.625 4.972657 4.015625 8.019532 4.015625 2.082031 0 4.183594-.648438 5.980468-1.992188l223.007813-166.644531c4.425781-3.308594 5.332031-9.574219 2.023437-14-3.304687-4.425781-9.574218-5.332031-14-2.027344zm0 0"/><path d="m123.730469 97.984375c3.53125 2.355469 8.261719 2.1875 11.636719-.378906 3.183593-2.421875 4.605468-6.671875 3.570312-10.527344-1.109375-4.128906-4.855469-7.164063-9.125-7.398437-4.253906-.230469-8.257812 2.367187-9.824219 6.316406-1.707031 4.296875-.148437 9.441406 3.742188 11.988281zm0 0"/><path d="m302.972656 151.9375c-4.046875-3.757812-10.375-3.527344-14.132812.519531l-122.246094 131.582031c-3.757812 4.046876-3.527344 10.378907.519531 14.136719 1.925781 1.789063 4.371094 2.675781 6.804688 2.675781 2.683593 0 5.363281-1.074218 7.332031-3.195312l122.246094-131.582031c3.757812-4.046875 3.523437-10.375-.523438-14.136719zm0 0"/><path d="m439.144531 151.210938-89.433593 65.789062c-4.449219 3.273438-5.402344 9.535156-2.128907 13.984375 1.960938 2.664063 4.992188 4.074219 8.066407 4.074219 2.058593 0 4.132812-.632813 5.917968-1.945313l89.433594-65.792969c4.449219-3.269531 5.402344-9.53125 2.128906-13.980468-3.277344-4.453125-9.535156-5.402344-13.984375-2.128906zm0 0"/><path d="m287.738281 239.34375c2.425781 0 4.859375-.878906 6.785157-2.652344l126.480468-116.839844c4.058594-3.75 4.308594-10.078124.5625-14.132812-3.75-4.058594-10.078125-4.3125-14.136718-.5625l-126.480469 116.839844c-4.058594 3.75-4.308594 10.078125-.5625 14.132812 1.972656 2.136719 4.65625 3.214844 7.351562 3.214844zm0 0"/><path d="m436.667969 78.839844c-3.484375 2.28125-5.175781 6.71875-4.152344 10.746094 1.023437 4.007812 4.457031 7.007812 8.558594 7.5 4.15625.496093 8.257812-1.769532 10.105469-5.511719 1.828124-3.691407 1.148437-8.246094-1.664063-11.257813-3.289063-3.53125-8.84375-4.148437-12.847656-1.476562zm0 0"/><path d="m469.9375 72.855469c2.414062 0 4.835938-.867188 6.753906-2.628907l32.0625-29.378906c4.074219-3.730468 4.347656-10.058594.617188-14.132812-3.730469-4.070313-10.058594-4.347656-14.128906-.617188l-32.0625 29.378906c-4.074219 3.734376-4.347657 10.0625-.617188 14.132813 1.972656 2.152344 4.667969 3.246094 7.375 3.246094zm0 0"/><path d="m313.546875 126.710938c-3.652344 4.144531-3.257813 10.464843.882813 14.117187 1.902343 1.679687 4.261718 2.503906 6.613281 2.503906 2.769531 0 5.527343-1.144531 7.503906-3.382812l64.796875-73.421875c3.65625-4.140625 3.257812-10.460938-.882812-14.117188-4.140626-3.652344-10.460938-3.261718-14.117188.882813zm0 0"/><path d="m405.617188 37.863281c1.878906 1.601563 4.183593 2.382813 6.472656 2.382813 2.832031 0 5.648437-1.195313 7.625-3.519532l17.214844-20.242187c3.582031-4.207031 3.070312-10.519531-1.136719-14.097656-4.207031-3.582031-10.519531-3.070313-14.097657 1.136719l-17.21875 20.242187c-3.578124 4.207031-3.070312 10.519531 1.140626 14.097656zm0 0"/><path d="m496.242188 112.550781-22.042969 15.511719c-4.519531 3.179688-5.601563 9.417969-2.421875 13.9375 1.945312 2.769531 5.042968 4.246094 8.1875 4.246094 1.988281 0 3.996094-.59375 5.75-1.824219l22.039062-15.511719c4.519532-3.179687 5.601563-9.417968 2.421875-13.9375-3.179687-4.515625-9.417969-5.601562-13.933593-2.421875zm0 0"/></svg>