<svg height="512pt" viewBox="0 0 512.00053 512" width="512pt" xmlns="http://www.w3.org/2000/svg"><path d="m511.902344 201.972656c.488281-3.417968-.878906-6.949218-3.550782-9.140625l-64.609374-52.964843c-1.789063-1.46875-4.027344-2.269532-6.339844-2.269532h-34.710938c-.820312-12.242187-3.136718-24.273437-6.9375-35.886718-.085937-.261719-.179687-.519532-.289062-.769532-19.570313-58.589844-74.949219-100.941406-140.035156-100.941406-65.085938 0-120.460938 42.347656-140.035157 100.9375-.105469.253906-.203125.511719-.292969.777344-3.796874 11.609375-6.117187 23.640625-6.933593 35.886718h-32.097657c-2.277343 0-4.480468.773438-6.257812 2.195313l-66.074219 52.96875c-3.078125 2.46875-4.445312 6.683594-3.382812 10.492187.703125 2.515626 5.492187 15.671876 30.949219 27.671876 28.199218 13.292968 71.25 20.6875 128.125 22.039062l7.488281 21.949219-80.554688 223.089843c-1.875 5.195313.8125 10.925782 6.007813 12.800782 1.121094.40625 2.269531.597656 3.398437.597656 4.09375 0 7.933594-2.535156 9.40625-6.605469l79.363281-219.785156h137.742188l14.644531 40.03125c1.898438 5.1875 7.640625 7.855469 12.828125 5.957031 5.1875-1.898437 7.855469-7.640625 5.957032-12.828125l-15.832032-43.277343 7.445313-21.824219c59.484375-1.011719 104.316406-8.445313 133.375-22.144531 25.457031-12 30.242187-25.160157 30.945312-27.675782.117188-.417968.199219-.851562.257813-1.28125zm-129.261719-64.371094h-254.421875c.609375-7.8125 1.929688-15.421874 3.886719-22.777343h246.644531c1.957031 7.355469 3.28125 14.964843 3.890625 22.777343zm-127.210937-117.601562c51.542968 0 96.042968 30.726562 116.15625 74.820312h-232.316407c20.117188-44.09375 64.617188-74.820312 116.160157-74.820312zm-175.847657 137.601562h38.234375.011719 275.203125.011719 40.78125l40.210937 32.964844h-435.578125zm105.089844 107.410157-4.03125-11.8125h145.507813l-4.03125 11.8125zm148.367187-31.816407h-154.078124c-84.410157 0-124.710938-12.402343-143.589844-22.625h441.261718c-18.875 10.222657-59.171874 22.625-143.59375 22.625zm0 0"/><path d="m144.804688 170.257812c-1.636719-3.929687-5.6875-6.457031-9.949219-6.148437-4.078125.296875-7.628907 3.132813-8.835938 7.03125-1.214843 3.949219.179688 8.367187 3.46875 10.875 3.277344 2.5 7.855469 2.730469 11.363281.558594 4.101563-2.539063 5.808594-7.863281 3.953126-12.316407zm0 0"/><path d="m226.328125 170.257812c-1.539063-3.691406-5.195313-6.136718-9.195313-6.167968-4.082031-.03125-7.835937 2.535156-9.335937 6.320312-1.578125 3.976563-.378906 8.699219 2.949219 11.402344 3.296875 2.675781 8.003906 2.992188 11.625.761719 4.105468-2.53125 5.8125-7.863281 3.957031-12.316407zm0 0"/><path d="m307.851562 170.257812c-1.613281-3.863281-5.582031-6.386718-9.773437-6.160156-4.160156.226563-7.816406 3.097656-9.027344 7.082032-1.214843 3.988281.246094 8.453124 3.605469 10.933593 3.265625 2.410157 7.78125 2.605469 11.230469.460938 4.097656-2.546875 5.828125-7.847657 3.964843-12.316407zm0 0"/><path d="m389.363281 170.257812c-1.613281-3.867187-5.566406-6.386718-9.765625-6.160156-4.160156.226563-7.8125 3.097656-9.023437 7.082032-1.214844 3.988281.246093 8.453124 3.605469 10.933593 3.261718 2.410157 7.777343 2.605469 11.230468.460938 4.101563-2.546875 5.8125-7.855469 3.953125-12.316407zm0 0"/><path d="m383.042969 392.886719c-1.894531-5.183594-7.640625-7.855469-12.828125-5.953125-5.1875 1.894531-7.851563 7.640625-5.953125 12.828125l38.441406 105.078125c1.480469 4.050781 5.3125 6.566406 9.390625 6.566406 1.140625 0 2.300781-.199219 3.433594-.613281 5.1875-1.898438 7.855468-7.640625 5.957031-12.828125zm0 0"/><path d="m365.570312 367.367188c3.421876-2.28125 5.128907-6.582032 4.183594-10.585938-.953125-4.027344-4.375-7.136719-8.488281-7.652344-4.1875-.523437-8.351563 1.722656-10.214844 5.503906-1.816406 3.6875-1.148437 8.253907 1.664063 11.257813 3.320312 3.546875 8.820312 4.121094 12.855468 1.476563zm0 0"/><path d="m84.933594 114.644531c.640625.121094 1.273437.179688 1.898437.179688 4.699219 0 8.890625-3.328125 9.808594-8.117188 7.214844-37.574219 31.085937-64.792969 31.417969-65.171875 3.675781-4.113281 3.328125-10.425781-.78125-14.109375-4.113282-3.6875-10.4375-3.339843-14.121094.773438-1.132812 1.265625-27.847656 31.464843-36.15625 74.734375-1.042969 5.425781 2.511719 10.667968 7.933594 11.710937zm0 0"/><path d="m419.242188 118.398438c1 4.703124 5.152343 7.921874 9.773437 7.921874.6875 0 1.386719-.070312 2.089844-.21875 5.402343-1.148437 8.851562-6.460937 7.699219-11.863281-4.167969-19.601562-14.054688-43.625-14.472657-44.636719-2.109375-5.101562-7.957031-7.527343-13.0625-5.417968-5.101562 2.109375-7.53125 7.957031-5.421875 13.0625.097656.226562 9.613282 23.363281 13.394532 41.152344zm0 0"/></svg>