<svg height="511pt" viewBox="1 0 511.999 511" width="511pt" xmlns="http://www.w3.org/2000/svg"><path d="m504.066406 405.609375c-3.308594-18.601563-5.695312-32.035156-3.082031-59.886719 1.742187-18.554687-9.332031-38.511718-28.210937-50.84375-23.269532-15.199218-51.738282-15.519531-78.097657-.871094-3.261719 1.808594-8.277343 3.035157-18.226562-3.617187-8.550781-5.714844-17.371094-15.132813-25.152344-23.4375-4.136719-4.414063-7.902344-8.425781-11.46875-11.785156 13.675781-37.824219 22.820313-51.007813 51.839844-67.277344 10.5-5.890625 18.421875-18.589844 22.308593-35.761719 3.757813-16.613281 3.238282-35.683594-1.464843-53.691406-4.976563-19.042969-17.027344-46.199219-46.199219-67.417969-27.84375-20.25-64.960938-30.519531-110.3125-30.519531-47.550781 0-85.964844 11.253906-114.175781 33.453125-4.339844 3.414063-5.089844 9.699219-1.675781 14.042969 3.414062 4.339844 9.703124 5.085937 14.042968 1.675781 24.601563-19.359375 58.855469-29.171875 101.808594-29.171875 41.035156 0 74.191406 8.980469 98.550781 26.695312 24.390625 17.742188 34.460938 40.40625 38.609375 56.296876 8.5625 32.765624-.796875 61.078124-11.273437 66.953124-38.898438 21.8125-48.410157 41.347657-65.675781 91.613282-1.289063 3.75-2.863282 7.296875-4.722657 10.628906-2.179687 3.914062-4.753906 7.535156-7.703125 10.851562-.0625.074219-.128906.152344-.191406.226563-.078125.082031-.15625.164063-.234375.246094-2.464844 2.722656-5.1875 5.230469-8.167969 7.523437-11.539062 8.871094-25.363281 13.308594-39.191406 13.308594-13.824219-.003906-27.652344-4.4375-39.1875-13.308594-2.585938-1.988281-4.972656-4.144531-7.175781-6.453125-3.652344-3.835937-6.773438-8.109375-9.335938-12.792969-1.765625-3.21875-3.273437-6.628906-4.511719-10.234374-17.261718-50.265626-26.773437-69.800782-65.675781-91.609376-8.867187-4.972656-18.558593-29.097656-12.882812-59.714843 1.003906-5.433594-2.582031-10.648438-8.011719-11.65625-5.433594-.996094-10.648438 2.582031-11.65625 8.011719-6.507812 35.136718 3.277344 69.875 22.769531 80.804687 29.019531 16.269531 38.164063 29.453125 51.839844 67.277344-3.566406 3.359375-7.332031 7.371093-11.464844 11.78125-13.304687 14.199219-31.523437 33.636719-43.378906 27.058593-26.363281-14.644531-54.828125-14.328124-78.101563.871094-18.878906 12.332032-29.953124 32.289063-28.210937 50.84375 2.613281 27.851563.226563 41.285156-3.082031 59.886719-3.535156 19.886719-7.933594 44.640625-7.933594 95.640625 0 5.523438 4.476562 10 10 10s10-4.476562 10-10c0-49.234375 4.230469-73.027344 7.625-92.144531 3.445312-19.386719 6.167969-34.703125 3.300781-65.25-1.039062-11.082031 6.691407-24.035157 19.238281-32.230469 7.972657-5.207031 29.53125-15.644531 57.449219-.132812 11.734375 6.515624 24.871094 5.007812 39.050781-4.476563 10.460938-6.992187 20.117188-17.300781 28.636719-26.390625 1.515625-1.621094 3.011719-3.214844 4.460938-4.738281 5.539062 12.386719 14.109375 23.230469 24.855469 31.511719 11.34375 8.71875 24.378906 14.167968 37.832031 16.347656 4.488281.726562 9.019531 1.089844 13.550781 1.089844 9.0625 0 18.128906-1.453126 26.816406-4.359376 8.691406-2.910156 17.007813-7.269531 24.574219-13.085937 10.738281-8.273437 19.320313-19.121094 24.847656-31.503906 1.496094 1.574219 2.980469 3.15625 4.460938 4.738281 8.519531 9.09375 18.175781 19.398438 28.632812 26.390625 14.183594 9.484375 27.320313 10.992187 39.054688 4.476563 27.917969-15.511719 49.476562-5.074219 57.449219.132812 12.546874 8.195312 20.277343 21.148438 19.238281 32.230469-2.871094 30.546875-.148438 45.863281 3.296875 65.25 3.398437 19.117187 7.628906 42.910156 7.628906 92.144531 0 5.523438 4.476562 10 10 10 5.519531 0 10-4.476562 10-10 0-51-4.398438-75.753906-7.933594-95.640625zm0 0"/><path d="m392.910156 411.917969c-5.148437 2-7.699218 7.792969-5.699218 12.941406 6.175781 15.898437 6.269531 42.566406 6.269531 42.832031 0 5.519532 4.476562 10 10 10 5.523437 0 10-4.480468 10-10 0-1.246094-.085938-30.660156-7.628907-50.074218-2-5.148438-7.796874-7.699219-12.941406-5.699219zm0 0"/><path d="m116.34375 411.507812c-5.378906-1.273437-10.761719 2.058594-12.03125 7.433594-8.6875 36.78125-8.289062 80.578125-8.265625 82.425782.0625 5.480468 4.523437 9.882812 9.996094 9.882812h.117187c5.519532-.0625 9.945313-4.59375 9.882813-10.113281-.003907-.429688-.398438-43.171875 7.734375-77.597657 1.269531-5.375-2.058594-10.761718-7.433594-12.03125zm0 0"/><path d="m356.957031 145.140625c14.351563-18.195313 18.761719-36.460937 18.941407-37.226563.699218-2.976562 0-6.105468-1.894532-8.5-1.898437-2.394531-4.785156-3.789062-7.839844-3.789062-27.945312 0-65.652343 6.550781-86.597656 37.75-12.734375 18.972656-12.878906 38.09375-12.878906 38.898438 0 5.523437 4.476562 10 10 10 42.136719 0 66.910156-20.191407 80.269531-37.132813zm-68.503906 16.484375c1.382813-5.140625 3.847656-11.546875 8.230469-17.851562 10.976562-15.78125 29.367187-24.992188 54.78125-27.46875-2.355469 4.90625-5.675782 10.695312-10.210938 16.449218-13.167968 16.695313-30.890625 26.375-52.800781 28.871094zm0 0"/><path d="m139.160156 99.414062c-1.898437 2.394532-2.597656 5.523438-1.894531 8.496094.179687.769532 4.585937 19.035156 18.9375 37.230469 13.363281 16.941406 38.136719 37.132813 80.273437 37.132813 5.519532 0 10-4.476563 10-10 0-.804688-.148437-19.925782-12.882812-38.898438-20.945312-31.203125-58.652344-37.75-86.597656-37.75-3.054688 0-5.9375 1.394531-7.835938 3.789062zm77.316406 44.359376c4.382813 6.300781 6.84375 12.699218 8.230469 17.839843-37.839843-4.375-55.589843-29.496093-63.121093-45.316406 25.46875 2.460937 43.898437 11.671875 54.890624 27.476563zm0 0"/><path d="m346.484375 365.46875c-1.6875-.421875-41.632813-9.921875-69.027344 23.554688l-.714843.875c-4.113282 5.027343-11.007813 8.027343-18.441407 8.03125-.003906 0-.007812 0-.011719 0-.003906 0-.011718 0-.015624 0-7.433594-.003907-14.324219-3.003907-18.425782-8.015626l-.71875-.878906c-27.398437-33.484375-67.351562-23.988281-69.035156-23.566406-5.359375 1.335938-8.648438 6.769531-7.3125 12.128906s6.738281 8.625 12.097656 7.289063c1.195313-.285157 29.527344-6.699219 48.78125 16.828125l.695313.851562c5.972656 7.296875 14.394531 12.269532 23.933593 14.3125v84.371094c0 5.523438 4.476563 10 10 10 5.519532 0 10-4.476562 10-10v-84.371094c9.539063-2.046875 17.960938-7.019531 23.945313-14.328125l.691406-.847656c19.230469-23.5 47.539063-17.109375 48.769531-16.816406 5.339844 1.304687 10.742188-1.953125 12.074219-7.296875 1.335938-5.359375-1.925781-10.785156-7.285156-12.121094zm0 0"/><path d="m235.519531 226.28125c-5.519531 0-10 4.476562-10 10s4.480469 10 10 10h43.605469c5.523438 0 10-4.476562 10-10s-4.476562-10-10-10zm0 0"/><path d="m306.601562 47.054688c-.835937.242187-20.730468 6.1875-37.121093 21.351562-6.253907 5.789062-16.054688 5.789062-22.3125 0-16.390625-15.164062-36.285157-21.105469-37.121094-21.351562-5.296875-1.550782-10.828125 1.480468-12.390625 6.765624-1.5625 5.285157 1.460938 10.84375 6.742188 12.421876.164062.046874 16.351562 4.96875 29.1875 16.84375 6.9375 6.417968 15.835937 9.625 24.738281 9.625 8.902343 0 17.804687-3.207032 24.738281-9.625 12.835938-11.875 29.023438-16.796876 29.183594-16.84375 5.285156-1.5625 8.316406-7.109376 6.765625-12.402344-1.554688-5.300782-7.109375-8.339844-12.410157-6.785156zm0 0"/><path d="m111.9375 76.042969c1.582031 3.789062 5.457031 6.320312 9.566406 6.175781 4.238282-.148438 7.996094-3.050781 9.234375-7.097656 1.238281-4.042969-.296875-8.578125-3.742187-11.03125-3.304688-2.355469-7.796875-2.460938-11.214844-.285156-4.046875 2.574218-5.652344 7.820312-3.84375 12.238281zm0 0"/><path d="m412.699219 497.425781c-1.636719-3.933593-5.6875-6.457031-9.949219-6.148437-4.140625.296875-7.753906 3.230468-8.894531 7.222656-1.152344 4.019531.390625 8.445312 3.792969 10.875 3.34375 2.390625 7.945312 2.476562 11.371093.1875 3.914063-2.613281 5.492188-7.792969 3.679688-12.136719zm0 0"/></svg>