<svg height="512" viewBox="0 0 60 58" width="512" xmlns="http://www.w3.org/2000/svg"><g id="006---Astronaut" fill="none" transform="translate(0 -1)"><path id="Shape" d="m3 51h-2c-.55228475 0-1-.4477153-1-1s.44771525-1 1-1h2c.55228475 0 1 .4477153 1 1s-.44771525 1-1 1z" fill="#cbb292"/><path id="Shape" d="m59 51h-24c-.5522847 0-1-.4477153-1-1s.4477153-1 1-1h24c.5522847 0 1 .4477153 1 1s-.4477153 1-1 1z" fill="#cbb292"/><path id="Shape" d="m24.24 51h-17.24c-.55228475 0-1-.4477153-1-1s.44771525-1 1-1h17.24c.5522847 0 1 .4477153 1 1s-.4477153 1-1 1z" fill="#cbb292"/><path id="Shape" d="m22.35 43.68c.65 1.52 2 4.87 2 7.11-.0829444 1.564497-.5463437 3.0851331-1.35 4.43-.72 1.3.35 2.79 2 2.79.6659476.013948 1.3075036-.2506485 1.77-.73l5.34-3.39-.55-10.89z" fill="#35495e"/><path id="Shape" d="m29.89 33.67 2.33-16.34 8.78.67 3.8 3.8c.7458359.7451831 1.0457584 1.827182.79 2.85l-4.9 19.57c-.3857433 1.5518757-1.9209239 2.5284089-3.49 2.22l-2.2-.44z" fill="#35495e"/><path id="Shape" d="m37.22 26.77c-14.6.24.8 0-13.22.23-.8070004-.0984292-1.5343943-.5344977-2.0015036-1.19989-.4671092-.6653924-.6301034-1.4976727-.4484964-2.29011.0760657-.5224735.2276495-1.0311213.45-1.51l15 1c.4492357.1612917.8371626.4583529 1.11.85.37.6.41 1.53-.89 2.92z" fill="#3f5c6c"/><path id="Shape" d="m19.81 39.27-1.3 1.73c-.536854.7438655-1.4417455 1.1289257-2.35 1-.8842728-.1184753-1.639196-.6974399-1.9829244-1.5207416-.3437284-.8233016-.2245943-1.7671851.3129244-2.4792584 7.39-10 5.11-7 8.23-11z" fill="#35495e"/><path id="Shape" d="m23 26s-5 7-3 14 9 5.17 9 5.17l1 7.77c.0564801.5335507-.1266619 1.0646625-.5 1.45-1.55 1.65-.93.87-1.46 1.82-.2362258.4259684-.2875726.9301324-.1420722 1.3949779s.4751357.849759.9120722 1.0650221c.9755869.5594406 2.205073.3955091 3-.4l2.7-2.9c.372156-.3856134.5519597-.9176854.49-1.45v-8.06s0-5.93 2-10.08c-3-5.54 1.62 3 4.64 8.63.5600321.9270348 1.7135924 1.3054686 2.7139354.8903263 1.000343-.4151424 1.5469858-1.4991605 1.2860646-2.5503263-1-3.47-4-13.12-5.63-14.75-1.0708317-1.0065184-2.5508214-1.4542153-4-1.21z" fill="#3f5c6c"/><path id="Shape" d="m28 31c1.2526802.5984842 2.6130543.9385777 4 1v2.93c.0442299.9940505-.6088297 1.885097-1.5700665 2.1422279-.9612369.2571308-1.9719528-.1888558-2.4299335-1.0722279z" fill="#35495e"/><path id="Shape" d="m42 13c0 6.627417-5.372583 12-12 12s-12-5.372583-12-12 5.372583-12 12-12 12 5.372583 12 12z" fill="#2c3e50"/><path id="Shape" d="m29 23c-4.1389076.0013893-7.9863791-2.1302158-10.18-5.64-2.2623718-5.7741717.247686-12.32103708 5.7903746-15.10276096 5.5426887-2.78172389 12.2919342-.88184968 15.5696254 4.38276096 1.4400743 3.692638.9639011 7.8581749-1.2723629 11.1305613-2.2362641 3.2723864-5.9441299 5.2294682-9.9076371 5.2294387z" fill="#35495e"/><path id="Shape" d="m23.36 23c-2.6585991-1.7605848-4.5071553-4.5069135-5.1375613-7.6326767-.630406-3.1257633.0091818-6.37390252 1.7775613-9.0273233 3.0610465-1.7981848 6.8238871-1.92612139 10-.34 5 2.52 6.56 5.75 6.91 6.72.0383253.0904495.0684464.1841596.09.28 0 0 1 9.84-13.64 10z" fill="#f29c1f"/><g fill="#f0c419"><path id="Shape" d="m36.91 12.72c-2.676568 2.4664855-6.327932 3.5848755-9.926711 3.0404897-3.5987791-.5443858-6.7559892-2.692706-8.583289-5.8404897.3286799-1.27465664.8695693-2.48489678 1.6-3.58 3.0610465-1.7981848 6.8238871-1.92612139 10-.34 5.05 2.52 6.56 5.75 6.91 6.72z"/><path id="Shape" d="m5 10c-.55228475 0-1-.44771525-1-1v-4c0-.55228475.44771525-1 1-1s1 .44771525 1 1v4c0 .55228475-.44771525 1-1 1z"/><path id="Shape" d="m7 8h-4c-.55228475 0-1-.44771525-1-1s.44771525-1 1-1h4c.55228475 0 1 .44771525 1 1s-.44771525 1-1 1z"/><path id="Shape" d="m54 16c-.5522847 0-1-.4477153-1-1v-4c0-.5522847.4477153-1 1-1s1 .4477153 1 1v4c0 .5522847-.4477153 1-1 1z"/><path id="Shape" d="m56 14h-4c-.5522847 0-1-.4477153-1-1s.4477153-1 1-1h4c.5522847 0 1 .4477153 1 1s-.4477153 1-1 1z"/><path id="Shape" d="m10 29c-.55228475 0-1-.4477153-1-1v-4c0-.5522847.44771525-1 1-1 .5522847 0 1 .4477153 1 1v4c0 .5522847-.4477153 1-1 1z"/><path id="Shape" d="m12 27h-4c-.55228475 0-1-.4477153-1-1s.44771525-1 1-1h4c.5522847 0 1 .4477153 1 1s-.4477153 1-1 1z"/></g><path id="Shape" d="m46 56h-1c-.5522847 0-1-.4477153-1-1s.4477153-1 1-1h1c.5522847 0 1 .4477153 1 1s-.4477153 1-1 1z" fill="#a59078"/><path id="Shape" d="m56 56h-6c-.5522847 0-1-.4477153-1-1s.4477153-1 1-1h6c.5522847 0 1 .4477153 1 1s-.4477153 1-1 1z" fill="#a59078"/><path id="Shape" d="m6 56h-2c-.55228475 0-1-.4477153-1-1s.44771525-1 1-1h2c.55228475 0 1 .4477153 1 1s-.44771525 1-1 1z" fill="#a59078"/><path id="Shape" d="m18 56h-8c-.55228475 0-1-.4477153-1-1s.44771525-1 1-1h8c.5522847 0 1 .4477153 1 1s-.4477153 1-1 1z" fill="#a59078"/><path id="Shape" d="m31 12c-.51 0-.57-.27-1.48-.76-.4860106-.2761424-.6561423-.8939894-.38-1.37999999.2761424-.48601056.8939894-.65614236 1.38-.38000001.3894649.21392758.7636888.45450006 1.12.72.3509911.2624699.4901711.7229065.3433446 1.1358559-.1468264.4129493-.5454402.6821703-.9833446.6641441z" fill="#f9eab0"/><path id="Shape" d="m22 11c-.480605.0011766-.8940741-.339705-.9845632-.8117159-.0904892-.47201084.1675978-.94163627.6145632-1.1182841 1.4028877-.49552224 2.8822955-.73926906 4.37-.72.5522847 0 1 .44771525 1 1s-.4477153 1-1 1c-1.3585356.0130965-2.7072194.2322576-4 .65z" fill="#f9eab0"/></g></svg>