<?xml version="1.0" encoding="iso-8859-1"?>
<!-- Generator: Adobe Illustrator 21.0.0, SVG Export Plug-In . SVG Version: 6.00 Build 0)  -->
<svg version="1.1" id="Capa_1" xmlns="http://www.w3.org/2000/svg" xmlns:xlink="http://www.w3.org/1999/xlink" x="0px" y="0px"
	 viewBox="0 0 512 512" style="enable-background:new 0 0 512 512;" xml:space="preserve">
<g>
	<path style="fill:#2A556E;" d="M227.362,472.769h-25.148v-94.095c0-5.403,3.279-10.266,8.288-12.291l61.436-24.841l9.426,23.314
		l-54.003,21.836v86.077H227.362z"/>
	<path style="fill:#2A556E;" d="M413.643,368.064l-9.427-23.314l54.003-21.836v-86.077h25.148v94.095
		c0,5.403-3.279,10.265-8.288,12.291L413.643,368.064z"/>
	<rect x="303.72" y="428.78" style="fill:#2A556E;" width="78.46" height="56.06"/>
</g>
<g>
	<path style="fill:#46738C;" d="M418.387,324.377c0-41.664-33.775-75.44-75.44-75.44s-75.44,33.775-75.44,75.44v133.084h150.879
		V324.377H418.387z"/>
	<path style="fill:#46738C;" d="M386.908,512h-87.922c-5.998,0-10.861-4.863-10.861-10.861v-13.485
		c0-5.998,4.863-10.861,10.861-10.861h87.922c5.998,0,10.861,4.863,10.861,10.861v13.485C397.769,507.137,392.907,512,386.908,512z"
		/>
</g>
<circle style="fill:#D0FBFD;" cx="342.95" cy="335.46" r="41.13"/>
<path style="fill:#5D99BA;" d="M342.947,307.8c15.253,0,27.663,12.409,27.663,27.663s-12.409,27.663-27.663,27.663
	c-15.253,0-27.663-12.409-27.663-27.663S327.694,307.8,342.947,307.8 M342.947,292.711c-23.611,0-42.751,19.14-42.751,42.751
	s19.14,42.751,42.751,42.751s42.751-19.14,42.751-42.751S366.558,292.711,342.947,292.711L342.947,292.711z"/>
<g>
	<path style="fill:#46738C;" d="M253.013,497.666h-25.148c0-7.211-5.866-13.077-13.077-13.077s-13.077,5.866-13.077,13.077h-25.148
		c0-21.077,17.148-38.225,38.225-38.225S253.013,476.589,253.013,497.666z"/>
	<path style="fill:#46738C;" d="M470.793,250.165c-21.077,0-38.225-17.148-38.225-38.225h25.148c0,7.211,5.866,13.077,13.077,13.077
		s13.077-5.866,13.077-13.077h25.148C509.018,233.018,491.87,250.165,470.793,250.165z"/>
</g>
<path style="fill:#87AFB9;" d="M136.448,512c-13.421,0-24.301-10.88-24.301-24.301V293.455c0-13.421,10.88-24.301,24.301-24.301
	s24.301,10.88,24.301,24.301v194.243C160.75,501.12,149.87,512,136.448,512z"/>
<path style="fill:#B4D7DC;" d="M77.785,512c-13.421,0-24.301-10.88-24.301-24.301V293.455c0-13.421,10.88-24.301,24.301-24.301
	s24.301,10.88,24.301,24.301v194.243C102.086,501.12,91.206,512,77.785,512z"/>
<path style="fill:#C8E6EB;" d="M211.252,147.067c-0.132-26.293-21.966-47.684-48.671-47.684c-0.564,0-1.179,0-1.831,0
	c-14.573,0-85.223,0-107.264,0c-0.652,0-1.267,0-1.831,0c-26.705,0-48.54,21.39-48.671,47.684c0,0.034,0,0.068,0,0.101v148.778
	c0,11.184,9.067,20.251,20.251,20.251s20.251-9.067,20.251-20.251V147.235c0.043-3.851,3.925-7.349,8.169-7.349h1.829v153.57h0.002
	H160.75h0.002v-153.57h1.829c4.244,0,8.127,3.499,8.169,7.349v148.711c0,11.184,9.067,20.251,20.251,20.251
	s20.251-9.067,20.251-20.251V147.168C211.253,147.135,211.253,147.101,211.252,147.067z"/>
<path style="fill:#FF3C3C;" d="M142.645,168.889h-25.259c-1.778,0-3.219-1.441-3.219-3.219v-12.382c0-1.778,1.441-3.219,3.219-3.219
	h25.259c1.778,0,3.219,1.441,3.219,3.219v12.382C145.864,167.447,144.423,168.889,142.645,168.889z"/>
<path style="fill:#E4F2F6;" d="M160.091,52.949C160.091,23.707,136.385,0,107.142,0S54.193,23.707,54.193,52.949
	c0,13.92,5.379,26.577,14.161,36.028v20.478h77.575V88.977C154.712,79.526,160.091,66.869,160.091,52.949z"/>
<path style="fill:#2A556E;" d="M107.142,26.249c-15.863,0-29.425,6.975-34.968,16.839h-17.05c-0.602,3.197-0.931,6.489-0.931,9.861
	c0,3.402,0.326,6.727,0.94,9.95h17.042c5.542,9.865,19.104,16.839,34.968,16.839s29.426-6.974,34.968-16.839h17.042
	c0.614-3.223,0.94-6.548,0.94-9.95c0-3.372-0.329-6.664-0.931-9.861h-17.05C136.567,33.223,123.005,26.249,107.142,26.249z"/>
<g>
	<rect x="53.48" y="255" style="fill:#E4F2F6;" width="107.27" height="19.811"/>
	<rect x="2.982" y="234.88" style="fill:#E4F2F6;" width="40.502" height="19.811"/>
	<rect x="170.75" y="234.88" style="fill:#E4F2F6;" width="40.502" height="19.811"/>
</g>
<g>
</g>
<g>
</g>
<g>
</g>
<g>
</g>
<g>
</g>
<g>
</g>
<g>
</g>
<g>
</g>
<g>
</g>
<g>
</g>
<g>
</g>
<g>
</g>
<g>
</g>
<g>
</g>
<g>
</g>
</svg>
