<svg height="512" viewBox="0 0 60 58" width="512" xmlns="http://www.w3.org/2000/svg"><g id="007---Astronaut" fill="none"><path id="Shape" d="m59 50h-21.4c-.5522847 0-1-.4477153-1-1s.4477153-1 1-1h21.4c.5522847 0 1 .4477153 1 1s-.4477153 1-1 1z" fill="#cbb292"/><path id="Shape" d="m22.4 50h-15.4c-.55228475 0-1-.4477153-1-1s.44771525-1 1-1h15.4c.5522847 0 1 .4477153 1 1s-.4477153 1-1 1z" fill="#cbb292"/><path id="Shape" d="m29 46-.79 9.53c-.054967.6761406-.3661859 1.3057327-.87 1.76-.7642338.6954405-1.85835.8937239-2.81803.510703-.9596801-.3830209-1.616597-1.2801645-1.69197-2.310703l-.83-12.33z" fill="#35495e"/><path id="Shape" d="m38 43.16-.82 12.33c-.1204826 1.39599-1.2888205 2.4678363-2.69 2.4678363s-2.5695174-1.0718463-2.69-2.4678363l-.8-9.49z" fill="#35495e"/><path id="Shape" d="m22 43.16 7 2.84-.14 1.66c-3.33-.2-5.42-1.3-6.73-2.67z" fill="#2c3e50"/><path id="Shape" d="m38 43.16-.13 1.84c-1.31 1.37-3.4 2.47-6.73 2.67l-.14-1.67z" fill="#2c3e50"/><path id="Shape" d="m3 50h-2c-.55228475 0-1-.4477153-1-1s.44771525-1 1-1h2c.55228475 0 1 .4477153 1 1s-.44771525 1-1 1z" fill="#cbb292"/><path id="Shape" d="m46 55h-1c-.5522847 0-1-.4477153-1-1s.4477153-1 1-1h1c.5522847 0 1 .4477153 1 1s-.4477153 1-1 1z" fill="#a59078"/><path id="Shape" d="m56 55h-6c-.5522847 0-1-.4477153-1-1s.4477153-1 1-1h6c.5522847 0 1 .4477153 1 1s-.4477153 1-1 1z" fill="#a59078"/><path id="Shape" d="m6 55h-2c-.55228475 0-1-.4477153-1-1s.44771525-1 1-1h2c.55228475 0 1 .4477153 1 1s-.44771525 1-1 1z" fill="#a59078"/><path id="Shape" d="m18 55h-8c-.55228475 0-1-.4477153-1-1s.44771525-1 1-1h8c.5522847 0 1 .4477153 1 1s-.4477153 1-1 1z" fill="#a59078"/><path id="Shape" d="m43.16 41.94c-1.2455765.2460306-2.5111554-.3186739-3.16-1.41v-.07l-.18-.67c-.89 3.35-3.57 5.91-8.82 6.21-5 .31-9.57-1.35-10.75-6.19-.21.77-.15.62-.27.82-.7463215 1.2650173-2.2987943 1.8036763-3.6682461 1.2727656s-2.1531499-1.9752591-1.8517539-3.4127656c.4663458-3.1333235 1.3195253-6.196708 2.54-9.12 1.13-2.26 2.58-2.92 3.62-3.07h18.76c1 .15 2.49.81 3.62 3.07 1.2223162 2.9164646 2.0788316 5.9730489 2.55 9.1.286313 1.6156266-.7784544 3.161544-2.39 3.47z" fill="#3f5c6c"/><path id="Shape" d="m36.34 28.43h-12.68c-4.05-1.17-4-4.08-1.28-5.22h15.24c2.71 1.12 2.8 4.04-1.28 5.22z" fill="#3f5c6c"/><path id="Shape" d="m39.12 24.28c-5.5384497 3.6291189-12.7015503 3.6291189-18.24 0 .3993426-.4800728.9160808-.8486794 1.5-1.07h15.24c.5839192.2213206 1.1006574.5899272 1.5 1.07z" fill="#35495e"/><g fill="#f0c419"><path id="Shape" d="m5 9c-.55228475 0-1-.44771525-1-1v-4c0-.55228475.44771525-1 1-1s1 .44771525 1 1v4c0 .55228475-.44771525 1-1 1z"/><path id="Shape" d="m7 7h-4c-.55228475 0-1-.44771525-1-1s.44771525-1 1-1h4c.55228475 0 1 .44771525 1 1s-.44771525 1-1 1z"/><path id="Shape" d="m54 11c-.5522847 0-1-.4477153-1-1v-4c0-.55228475.4477153-1 1-1s1 .44771525 1 1v4c0 .5522847-.4477153 1-1 1z"/><path id="Shape" d="m56 9h-4c-.5522847 0-1-.44771525-1-1s.4477153-1 1-1h4c.5522847 0 1 .44771525 1 1s-.4477153 1-1 1z"/><path id="Shape" d="m11 28c-.5522847 0-1-.4477153-1-1v-4c0-.5522847.4477153-1 1-1s1 .4477153 1 1v4c0 .5522847-.4477153 1-1 1z"/><path id="Shape" d="m13 26h-4c-.55228475 0-1-.4477153-1-1s.44771525-1 1-1h4c.5522847 0 1 .4477153 1 1s-.4477153 1-1 1z"/><rect id="Rectangle-path" height="4" rx="1" width="5" x="30" y="32"/></g><path id="Shape" d="m23.52 35.18c-2 7.4-1.92 7.13-2 7.31-.609651-.8011618-1.0363255-1.7261922-1.25-2.71-.21.77-.15.62-.27.82l1.61-5.94c.0701124-.2560417.2391555-.4736979.4698766-.6050026.230721-.1313046.5041836-.165481.7601234-.0949974.5201625.1547758.8219329.6961874.68 1.22z" fill="#35495e"/><path id="Shape" d="m39.93 40.45-.18-.67c-.2363929.983513-.6571603 1.9132731-1.24 2.74-.12-.12-.17-.41-2.07-7.37-.0704836-.2559398-.0363072-.5294024.0949974-.7601234.1313047-.2307211.3489609-.3997642.6050026-.4698766.2573006-.0701406.531959-.0345987.7629304.0987262s.3991186.3533863.4670696.6112738c1.72 6.31 1.63 6.01 1.56 5.82z" fill="#35495e"/><path id="Shape" d="m44 13c0 7.18-6.27 12-14 12s-14-4.82-14-12c0-6.74 6-13 14-13s14 6.23 14 13z" fill="#2c3e50"/><path id="Shape" d="m44 12c-.54 6.62-6.58 11-14 11s-13.41-4.38-13.95-11c.54-6.71 6.58-12 14-12s13.36 5.29 13.95 12z" fill="#35495e"/><path id="Shape" d="m44 12.78c0 4-6.27 6.72-14 6.72s-14-2.7-14-6.72c0-7.2 18.08-10 25.69-4 1.3512779.90049061 2.2054273 2.3795371 2.31 4z" fill="#f29c1f"/><path id="Shape" d="m41.69 8.78c-2.58 6.07-19.09 6.83-25.33 2.36 2.75-6.22 18.58-7.71 25.33-2.36z" fill="#f0c419"/><path id="Shape" d="m28 10.64c-.5522847.0276142-1.0223857-.3977153-1.05-.95-.0276142-.55228474.3977153-1.02238575.95-1.05 1-.09 2-.14 3.1-.14.5522847 0 1 .44771525 1 1 0 .5522847-.4477153 1-1 1-1.93 0-2.78.14-3 .14z" fill="#f9eab0"/><path id="Shape" d="m22 12.49c-.4018897-.0016616-.7637369-.2437563-.918621-.6146054-.154884-.3708491-.0727076-.7983888.208621-1.0853946.6975254-.5848266 1.5075307-1.02045967 2.38-1.28.5219091-.18225395 1.092746.09309093 1.275.615.1822539.5219091-.0930909 1.092746-.615 1.275-1.86.65-1.61 1.09-2.33 1.09z" fill="#f9eab0"/></g></svg>